REM MD5 10ca54ef8348665770c9033417f7346d
FILE "Yume Iroiro (Japan).bin" BINARY
  TRACK 01 MODE2/2352
    INDEX 01 00:00:00
  TRACK 02 AUDIO
    INDEX 00 61:33:30
    INDEX 01 61:35:30
  TRACK 03 AUDIO
    INDEX 00 63:14:42
    INDEX 01 63:16:42
  TRACK 04 AUDIO
    INDEX 00 65:45:25
    INDEX 01 65:47:25
REM LEADOUT 67:26:37
